<?xml version="1.0" encoding="UTF-8" standalone="no"?>
<!DOCTYPE svg PUBLIC "-//W3C//DTD SVG 1.1//EN" "http://www.w3.org/Graphics/SVG/1.1/DTD/svg11.dtd">
<svg width="100%" height="100%" viewBox="0 0 66 66" version="1.1" xmlns="http://www.w3.org/2000/svg" xmlns:xlink="http://www.w3.org/1999/xlink" xml:space="preserve" xmlns:serif="http://www.serif.com/" style="fill-rule:evenodd;clip-rule:evenodd;stroke-linejoin:round;stroke-miterlimit:2;">
    <g transform="matrix(1,0,0,1,-318,-536)">
        <g id="avatars">
            <rect x="0" y="0" width="1000" height="765" style="fill:rgb(227,227,227);"/>
            <g transform="matrix(1,0,0,1,0.281,-0.109)">
                <clipPath id="_clip1">
                    <circle cx="350.719" cy="569.109" r="33"/>
                </clipPath>
                <g clip-path="url(#_clip1)">
                    <rect x="317.716" y="536.109" width="65.999" height="65.998" style="fill:rgb(214,187,64);"/>
                </g>
                <g>
                    <clipPath id="_clip2">
                        <circle cx="350.719" cy="569.109" r="33"/>
                    </clipPath>
                    <g clip-path="url(#_clip2)">
                        <path d="M336.517,602.107L344.763,602.107L344.377,588.714C338.822,591.542 336.517,594.762 336.517,602.107Z" style="fill:rgb(141,87,62);fill-rule:nonzero;"/>
                        <path d="M360.028,588.715L359.641,602.108L367.888,602.108C367.889,594.762 365.583,591.542 360.028,588.715Z" style="fill:rgb(141,87,62);fill-rule:nonzero;"/>
                        <path d="M360.947,589.976C358.904,585.008 347.249,586.301 344.377,588.715C341.929,590.77 342.31,596.994 343.133,602.108L360.915,602.108C361.679,597.892 362.156,592.916 360.947,589.976Z" style="fill:rgb(141,87,62);fill-rule:nonzero;"/>
                        <path d="M354.551,593.715C354.551,593.715 353.824,592.052 351.709,592.449C349.817,592.802 349.543,594.431 349.543,594.431L351.103,596.013L349.043,602.108L355.639,602.108L353.135,595.859L354.551,593.715Z" style="fill:rgb(55,35,26);fill-rule:nonzero;"/>
                        <path d="M344.982,588.451C343.479,592.289 348.946,595.416 348.946,595.416L352.202,593.382L355.245,595.292C355.245,595.292 361.256,592.173 358.979,587.697C356.933,583.671 346.727,583.996 344.982,588.451Z" style="fill:rgb(199,139,109);fill-rule:nonzero;"/>
                        <path d="M349.823,583.08C347.881,583.507 346.592,585.352 346.458,587.254C346.354,588.726 346.59,589.579 347.412,590.397C348.005,590.987 348.977,591.569 349.981,591.876C350.696,592.095 351.95,592.936 352.172,592.94C352.263,592.942 352.676,592.581 353.351,592.233C354.338,591.723 355.738,591.05 356.281,589.985C357.078,588.426 357.789,585.34 356.284,584.129C354.724,582.874 351.685,582.672 349.823,583.08Z" style="fill:rgb(242,176,129);fill-rule:nonzero;"/>
                        <g>
                            <path d="M348.462,545.64C345.092,545.907 341.948,547.001 339.229,549.027C337.904,550.014 336.696,551.719 336.208,553.311C335.968,554.096 335.53,554.749 335.222,555.497C334.75,556.64 332.733,562.64 332.733,564.726C332.733,565.63 332.905,568.446 333.055,569.313C333.358,571.05 334.011,572.855 335.302,574.121C335.808,574.614 336.466,574.804 337.165,574.655C341.512,573.74 345.783,572.507 350.091,571.434C354.102,570.436 358.55,571.202 362.654,571.481C365.869,571.698 365.817,570.337 365.975,567.733C366.27,562.879 365.731,561.098 365.968,559.137C366.973,550.794 360.268,544.71 348.462,545.64Z" style="fill:rgb(50,43,42);fill-rule:nonzero;"/>
                            <path d="M349.172,551.729C341.596,553.206 336.256,564.101 337.647,574.323C338.689,581.98 344.595,590.379 353.49,589.745C362.563,589.099 367.081,577.844 365.906,568.429C364.632,558.192 359.785,549.659 349.172,551.729Z" style="fill:rgb(255,203,158);fill-rule:nonzero;"/>
                            <g>
                                <path d="M346.284,567.637C344.332,566.796 343.104,570.263 344.435,571.393C345.057,571.212 345.79,571.279 346.37,571.559C347.68,570.88 347.738,568.264 346.284,567.637Z" style="fill:rgb(27,44,51);fill-rule:nonzero;"/>
                            </g>
                            <path d="M355.185,574.151C354.189,574.187 353.774,573.919 353.094,574.195C352.415,574.467 353.358,575.481 355.119,575.393C356.874,575.304 357.702,574.316 357.313,574.049C356.865,573.74 356.291,574.112 355.185,574.151Z" style="fill:rgb(201,70,20);fill-opacity:0.3;fill-rule:nonzero;"/>
                            <path d="M354.684,570.178C353.815,570.227 353.604,571.886 353.285,572.672C352.96,573.47 352.738,574.205 353.192,574.43C354.31,574.982 356.646,574.591 357.328,574.149C357.596,573.973 356.982,573.175 356.503,572.377C356.077,571.668 355.664,570.123 354.684,570.178Z" style="fill:rgb(255,225,199);fill-rule:nonzero;"/>
                            <g>
                                <path d="M363.15,567.507C361.163,566.314 359.703,570.147 361.341,571.231C361.86,570.886 362.902,570.993 363.407,571.226C364.206,570.345 364.213,568.146 363.15,567.507Z" style="fill:rgb(27,44,51);fill-rule:nonzero;"/>
                            </g>
                            <path d="M346.15,569.161C345.358,569.431 345.96,570.97 346.733,570.41C347.293,570.005 346.854,568.922 346.15,569.161Z" style="fill:rgb(165,171,184);fill-rule:nonzero;"/>
                            <path d="M362.933,568.842C362.151,568.998 362.527,570.536 363.327,570.101C363.904,569.787 363.627,568.704 362.933,568.842Z" style="fill:rgb(165,171,184);fill-rule:nonzero;"/>
                            <path d="M335.003,570.065C331.282,571.09 332.775,576.521 335.815,577.612C336.79,577.962 337.825,578.008 338.82,577.938C338.84,577.908 338.86,577.879 338.88,577.847C339.326,577.139 338.53,573.526 338.304,572.78C337.729,570.901 336.789,569.571 335.003,570.065Z" style="fill:rgb(255,203,158);fill-rule:nonzero;"/>
                            <path d="M336.31,572.065C335.473,571.679 333.385,572.373 334.367,574.008C334.886,572.491 335.808,573.486 335.667,574.563C335.573,575.286 334.797,575.295 335.567,576.223C335.984,576.725 336.83,576.538 337.256,576.27C338.61,575.415 337.33,572.533 336.31,572.065Z" style="fill:rgb(201,70,20);fill-opacity:0.3;fill-rule:nonzero;"/>
                            <path d="M363.279,551.407C360.835,548.53 357.594,546.512 353.836,545.927C351.531,545.569 349.148,545.83 346.91,546.456C343.613,547.378 341.714,548.777 339.128,551.034C336.127,553.656 335.453,556.722 335.393,560.588C335.348,563.398 336.465,565.99 336.579,568.745C336.646,570.4 337.61,572.434 338.14,573.122C338.551,573.325 339.45,573.325 340.173,573.136C338.814,571.876 338.261,568.446 339.347,565.228C339.803,563.875 340.218,562.678 340.502,561.266C340.695,560.306 340.785,559.627 341.868,559.545C343.352,559.433 344.236,560.806 345.608,560.992C346.079,561.056 346.573,561.085 347.048,561.115C348.486,561.2 349.983,561.157 351.417,561.027C353.417,560.846 355.395,560.792 357.403,560.685C358.85,560.611 360.264,560.65 361.704,560.485C361.751,560.479 361.8,560.474 361.849,560.471C362.907,560.367 364.135,560.433 365.013,559.769C366.05,558.986 366.615,557.331 366.226,556.095C365.685,554.37 364.435,552.766 363.279,551.407Z" style="fill:rgb(50,43,42);fill-rule:nonzero;"/>
                            <path d="M345.135,563.924C343.775,564.195 342.328,565.197 341.915,566.495C341.814,566.814 342.099,567.347 342.665,567.031C343.521,566.554 344.365,566.06 345.353,565.881C346.335,565.701 347.349,565.757 348.303,566.028C348.88,566.193 349.461,565.602 349.073,564.992C348.38,563.907 346.256,563.699 345.135,563.924Z" style="fill:rgb(50,43,42);fill-rule:nonzero;"/>
                            <path d="M362.408,563.574C361.382,563.578 359.348,564.312 358.941,565.358C358.711,565.941 359.33,566.343 359.808,566.104C360.596,565.708 361.537,565.298 362.434,565.282C363.337,565.263 364.109,565.722 364.95,565.979C365.507,566.15 365.657,565.648 365.51,565.394C364.907,564.361 363.653,563.567 362.408,563.574Z" style="fill:rgb(50,43,42);fill-rule:nonzero;"/>
                            <path d="M364.817,572.979C364.112,572.206 362.828,572.206 361.924,572.319C360.743,572.465 359.235,573.099 360.512,574.637C361.194,575.455 365.974,575.49 365.148,573.501C365.063,573.297 364.951,573.123 364.817,572.979Z" style="fill:rgb(255,225,199);fill-rule:nonzero;"/>
                            <path d="M346.997,573.306C346.283,572.475 344.936,572.43 343.984,572.519C342.742,572.632 341.14,573.246 342.427,574.901C343.115,575.784 348.127,575.979 347.325,573.868C347.243,573.649 347.132,573.464 346.997,573.306Z" style="fill:rgb(255,225,199);fill-rule:nonzero;"/>
                            <path d="M357.786,543.69C353.653,545.169 349.211,545.471 347.139,545.788C346.075,545.948 344.122,546.356 343.698,547.538C344.951,547.774 346.282,547.739 347.555,547.91C350.9,548.361 354.93,548.454 358.284,548.12C359.395,548.011 360.541,546.571 361.109,545.934C359.904,545.885 358.179,545.735 356.662,545.652C357.059,545.123 357.355,544.673 357.786,543.69Z" style="fill:rgb(50,43,42);fill-rule:nonzero;"/>
                            <path d="M363.878,552.309C361.449,549.34 357.914,547.127 354.083,546.785C350.786,546.49 347.522,546.438 344.345,547.535C342.725,548.092 341.08,549.068 339.891,550.321C338.605,551.675 337.436,553.901 339.062,555.471C339.9,556.283 344.091,559.461 345.292,560.033C345.126,559.231 345.243,558.363 345.107,557.584C347.328,558.047 353.776,559.96 354.721,560.427C354.773,559.665 354.757,558.817 354.992,558.102C357.194,558.191 359.102,559.167 360.931,560.277C360.999,559.239 361.38,558.301 361.463,557.29C363.347,557.366 365.863,557.906 367.428,559.003C366.813,557.283 366.038,555.518 365.066,553.965C364.708,553.393 364.311,552.838 363.878,552.309Z" style="fill:rgb(66,55,54);fill-rule:nonzero;"/>
                            <g>
                                <path d="M343.955,576.732C343.955,576.732 346.268,585.24 352.93,585.714C357.187,586.014 358.511,583.783 360.087,581.09C361.026,579.49 361.662,577.752 362.746,576.449C359.914,578.842 352.174,581.224 343.955,576.732Z" style="fill:rgb(196,23,14);fill-opacity:0.2;fill-rule:nonzero;"/>
                                <path d="M361.209,576.664C360.975,576.837 361.496,576.72 362.194,576.6C362.894,576.481 362.656,577.646 363.089,577.527C363.521,577.409 363.636,576.566 363.123,576.124C362.612,575.684 361.209,576.664 361.209,576.664Z" style="fill:rgb(201,70,20);fill-opacity:0.3;fill-rule:nonzero;"/>
                                <path d="M343.782,576.374C343.161,576.543 342.841,577.614 343.238,577.795C343.637,577.975 343.844,577.02 344.521,576.843C345.245,576.655 346.122,576.906 345.919,576.699C345.92,576.699 344.477,576.185 343.782,576.374Z" style="fill:rgb(201,70,20);fill-opacity:0.3;fill-rule:nonzero;"/>
                                <path d="M345.299,577.94C345.299,577.94 347.376,584.133 353.419,584.381C356.421,584.504 358.444,582.345 359.358,580.731C360.379,578.932 361.663,577.752 361.663,577.752C352.731,583.211 345.299,577.94 345.299,577.94Z" style="fill:rgb(143,57,53);fill-rule:nonzero;"/>
                                <path d="M345.299,577.94C345.299,577.94 346.943,580.522 348.981,581.378C351.591,582.474 353.994,582.587 356.996,581.896C359.019,581.431 361.663,577.753 361.663,577.753C361.663,577.753 354.593,582.327 345.299,577.94Z" style="fill:rgb(255,249,240);fill-rule:nonzero;"/>
                                <path d="M354.186,581.963C351.413,581.929 349.953,581.342 348.662,580.795C347.588,580.338 347.705,581.426 347.9,581.959C347.9,581.959 348.934,583.894 352.92,584.344C356.676,584.771 358.499,581.935 358.013,581.36C357.525,580.784 356.96,581.998 354.186,581.963Z" style="fill:rgb(255,249,240);fill-rule:nonzero;"/>
                                <path d="M345.299,577.94C345.299,577.94 346.113,579.332 346.886,579.879C346.886,579.879 353.74,581.408 360.22,579.505C360.22,579.505 361.546,578.25 361.662,577.752C361.662,577.752 354.359,582.25 345.299,577.94Z" style="fill:rgb(232,218,197);fill-rule:nonzero;"/>
                                <path d="M347.896,580.785C353.756,584.292 357.554,581.586 357.554,581.586C352.215,582.771 347.896,580.785 347.896,580.785Z" style="fill:rgb(232,218,197);fill-rule:nonzero;"/>
                            </g>
                            <path d="M363.906,555.823C363.536,555.279 363.047,554.806 362.427,554.558C358.284,552.91 354.273,551.975 349.747,551.895C346.98,551.846 343.975,551.692 341.397,552.857C339.041,553.925 336.746,555.834 335.602,558.179C335.162,559.082 332.145,564.157 334.229,564.572C335.317,564.79 336.757,563.52 337.61,562.955C338.573,563.574 339.625,564.293 340.515,565.003C341.894,566.103 343.185,567.304 345.01,566.556C353.49,563.079 360.563,564.087 362.531,564.031C363.266,564.01 364.602,564.377 365.268,564.124C367.199,563.39 364.75,558.571 364.448,557.394C364.296,556.791 364.275,556.369 363.906,555.823Z" style="fill:rgb(94,9,0);fill-opacity:0.15;fill-rule:nonzero;"/>
                        </g>
                        <g>
                            <path d="M346.449,542.537C333.719,544.714 332.281,556.877 331.65,561.452C331.193,564.764 335.426,562.814 338.225,561.088C338.53,560.898 338.839,560.723 339.153,560.565C345.327,557.402 352.091,558.128 358.784,557.74C361.034,557.608 363.635,557.255 366.5,557.795C368.962,558.258 365.561,539.273 346.449,542.537Z" style="fill:rgb(89,54,42);fill-rule:nonzero;"/>
                            <path d="M359.368,545.033C356.071,543.016 353.075,542.369 349.249,542.604C344.974,542.864 340.83,544.458 339.045,546.111C338.53,547.715 338.182,552.179 339.69,556.89C340.293,558.767 341.171,557.371 344.015,556.336C352.062,553.404 357.632,553.949 364.007,555.249C365.091,555.47 366.38,555.89 366.25,554.909C365.952,552.664 364.398,549.458 361.85,546.975C361.08,546.229 360.245,545.569 359.368,545.033Z" style="fill:rgb(142,82,59);fill-rule:nonzero;"/>
                            <path d="M346.488,547.334C343.564,548.639 344.951,553.566 348.063,552.862C350.535,552.305 353.014,551.782 356.831,552.225C358.362,552.404 362.119,553.64 361.695,550.664C360.916,545.202 349.768,545.871 346.488,547.334Z" style="fill:rgb(214,159,133);fill-rule:nonzero;"/>
                            <g>
                                <path d="M347.625,553.84L347.343,553.909C347.151,553.957 346.958,553.982 346.772,553.984C346.642,553.986 346.54,554.091 346.542,554.22C346.542,554.341 346.636,554.44 346.753,554.45C346.761,554.45 346.769,554.451 346.777,554.451C346.999,554.448 347.227,554.418 347.455,554.362L347.737,554.292C347.863,554.261 347.938,554.135 347.908,554.01C347.876,553.886 347.749,553.81 347.625,553.84Z" style="fill:rgb(199,139,109);fill-rule:nonzero;"/>
                                <path d="M346.114,545.833C345.787,545.945 345.491,546.065 345.235,546.188L345.213,546.199C345.097,546.256 345.06,546.39 345.115,546.506C345.151,546.581 345.226,546.625 345.306,546.632C345.35,546.636 345.394,546.629 345.436,546.609C345.677,546.493 345.956,546.38 346.265,546.274C346.386,546.233 346.453,546.1 346.41,545.98C346.367,545.857 346.236,545.792 346.114,545.833Z" style="fill:rgb(199,139,109);fill-rule:nonzero;"/>
                                <path d="M345.955,553.839C345.702,553.742 345.458,553.599 345.232,553.409C345.133,553.328 344.986,553.342 344.903,553.44C344.821,553.539 344.835,553.686 344.934,553.768C345.201,553.99 345.488,554.16 345.788,554.274C345.809,554.282 345.829,554.288 345.851,554.29C345.951,554.299 346.051,554.24 346.088,554.141C346.136,554.021 346.075,553.886 345.955,553.839Z" style="fill:rgb(199,139,109);fill-rule:nonzero;"/>
                                <path d="M347.926,545.354C347.61,545.418 347.305,545.489 347.015,545.565C346.89,545.596 346.816,545.724 346.849,545.847C346.874,545.946 346.958,546.013 347.052,546.022C347.079,546.024 347.106,546.022 347.132,546.015C347.414,545.941 347.712,545.873 348.019,545.812C348.145,545.787 348.227,545.664 348.202,545.539C348.175,545.411 348.052,545.33 347.926,545.354Z" style="fill:rgb(199,139,109);fill-rule:nonzero;"/>
                                <path d="M349.77,545.072C349.459,545.105 349.148,545.146 348.846,545.193C348.717,545.212 348.631,545.331 348.65,545.459C348.668,545.567 348.755,545.647 348.86,545.656C348.879,545.657 348.897,545.656 348.916,545.654C349.214,545.608 349.518,545.569 349.821,545.536C349.949,545.522 350.042,545.407 350.027,545.278C350.014,545.151 349.898,545.057 349.77,545.072Z" style="fill:rgb(199,139,109);fill-rule:nonzero;"/>
                                <path d="M349.424,553.413C349.122,553.478 348.822,553.548 348.522,553.621C348.396,553.651 348.32,553.776 348.35,553.902C348.373,554.002 348.457,554.071 348.555,554.08C348.579,554.083 348.605,554.081 348.631,554.074C348.928,554.003 349.226,553.933 349.523,553.869C349.649,553.841 349.729,553.717 349.701,553.592C349.675,553.465 349.55,553.386 349.424,553.413Z" style="fill:rgb(199,139,109);fill-rule:nonzero;"/>
                                <path d="M351.252,553.075C350.953,553.117 350.645,553.17 350.334,553.227C350.209,553.252 350.125,553.373 350.148,553.5C350.168,553.604 350.255,553.68 350.357,553.688C350.378,553.691 350.399,553.689 350.42,553.686C350.725,553.629 351.028,553.579 351.32,553.537C351.448,553.517 351.536,553.398 351.516,553.272C351.498,553.144 351.38,553.056 351.252,553.075Z" style="fill:rgb(199,139,109);fill-rule:nonzero;"/>
                                <path d="M360.306,547.463C360.341,547.491 360.384,547.507 360.425,547.51C360.503,547.518 360.582,547.486 360.634,547.419C360.711,547.317 360.692,547.17 360.589,547.092C360.346,546.905 360.079,546.727 359.799,546.565C359.688,546.5 359.545,546.538 359.48,546.649C359.416,546.761 359.453,546.903 359.565,546.967C359.827,547.121 360.077,547.288 360.306,547.463Z" style="fill:rgb(199,139,109);fill-rule:nonzero;"/>
                                <path d="M343.482,549.654L343.488,549.654C343.616,549.663 343.727,549.566 343.737,549.438C343.739,549.406 343.741,549.373 343.744,549.34C343.769,549.073 343.814,548.818 343.881,548.573C343.914,548.45 343.841,548.322 343.717,548.288C343.593,548.254 343.465,548.326 343.431,548.451C343.357,548.72 343.307,549.005 343.28,549.3C343.277,549.334 343.275,549.37 343.27,549.406C343.263,549.532 343.356,549.643 343.482,549.654Z" style="fill:rgb(199,139,109);fill-rule:nonzero;"/>
                                <path d="M344.4,546.766C344.167,546.991 343.964,547.253 343.797,547.546C343.734,547.659 343.774,547.802 343.886,547.865C343.916,547.881 343.947,547.89 343.981,547.893C344.069,547.901 344.158,547.857 344.205,547.775C344.348,547.521 344.522,547.293 344.723,547.102C344.816,547.012 344.819,546.866 344.731,546.772C344.642,546.68 344.494,546.676 344.4,546.766Z" style="fill:rgb(199,139,109);fill-rule:nonzero;"/>
                                <path d="M361.943,549.504C362.057,549.77 362.149,550.049 362.216,550.338C362.239,550.439 362.325,550.509 362.423,550.518C362.446,550.52 362.473,550.519 362.497,550.512C362.622,550.484 362.7,550.358 362.67,550.233C362.597,549.918 362.496,549.61 362.368,549.321C362.317,549.201 362.18,549.147 362.062,549.198C361.945,549.25 361.892,549.388 361.943,549.504Z" style="fill:rgb(199,139,109);fill-rule:nonzero;"/>
                                <path d="M343.912,551.19C343.835,550.904 343.781,550.612 343.752,550.321C343.739,550.192 343.624,550.099 343.497,550.112C343.369,550.124 343.275,550.24 343.288,550.367C343.32,550.684 343.38,551.002 343.462,551.31C343.488,551.408 343.571,551.473 343.666,551.483C343.693,551.484 343.72,551.483 343.748,551.475C343.872,551.44 343.946,551.315 343.912,551.19Z" style="fill:rgb(199,139,109);fill-rule:nonzero;"/>
                                <path d="M344.211,552.019C344.156,551.903 344.019,551.851 343.902,551.905C343.785,551.96 343.734,552.097 343.787,552.215C343.926,552.518 344.089,552.799 344.27,553.051C344.313,553.109 344.374,553.141 344.44,553.147C344.494,553.153 344.549,553.137 344.596,553.104C344.7,553.029 344.724,552.882 344.649,552.779C344.483,552.549 344.336,552.294 344.211,552.019Z" style="fill:rgb(199,139,109);fill-rule:nonzero;"/>
                                <path d="M358.663,553.231C358.506,553.207 358.352,553.183 358.204,553.159C358.047,553.135 357.895,553.11 357.752,553.09C357.627,553.071 357.506,553.158 357.488,553.286C357.468,553.414 357.556,553.532 357.684,553.551C357.826,553.572 357.974,553.595 358.13,553.62C358.279,553.645 358.436,553.67 358.595,553.691C358.598,553.692 358.604,553.693 358.608,553.693C358.73,553.705 358.841,553.619 358.86,553.496C358.879,553.369 358.791,553.248 358.663,553.231Z" style="fill:rgb(199,139,109);fill-rule:nonzero;"/>
                                <path d="M358.081,545.786C357.958,545.743 357.826,545.808 357.783,545.93C357.741,546.051 357.805,546.183 357.927,546.227C358.218,546.329 358.5,546.439 358.765,546.559C358.79,546.57 358.816,546.577 358.84,546.579C358.937,546.587 359.031,546.535 359.073,546.441C359.127,546.324 359.074,546.185 358.956,546.133C358.679,546.008 358.385,545.892 358.081,545.786Z" style="fill:rgb(199,139,109);fill-rule:nonzero;"/>
                                <path d="M361.693,548.838C361.744,548.844 361.798,548.829 361.844,548.799C361.951,548.727 361.979,548.582 361.908,548.475C361.731,548.214 361.528,547.963 361.303,547.73C361.214,547.636 361.067,547.633 360.973,547.723C360.881,547.812 360.878,547.959 360.968,548.052C361.174,548.267 361.361,548.496 361.521,548.737C361.561,548.797 361.627,548.831 361.693,548.838Z" style="fill:rgb(199,139,109);fill-rule:nonzero;"/>
                                <path d="M360.453,553.361C360.19,553.375 359.898,553.369 359.564,553.34C359.436,553.328 359.322,553.423 359.311,553.552C359.301,553.679 359.395,553.792 359.523,553.804L359.524,553.804C359.879,553.834 360.192,553.842 360.479,553.825C360.607,553.819 360.705,553.708 360.698,553.581C360.693,553.452 360.584,553.354 360.453,553.361Z" style="fill:rgb(199,139,109);fill-rule:nonzero;"/>
                                <path d="M362.565,550.963C362.436,550.972 362.338,551.082 362.346,551.209C362.359,551.406 362.357,551.591 362.343,551.759C362.333,551.865 362.318,551.969 362.296,552.064C362.27,552.19 362.351,552.314 362.477,552.342C362.486,552.343 362.497,552.344 362.505,552.345C362.62,552.356 362.728,552.279 362.752,552.163C362.777,552.048 362.795,551.928 362.807,551.8C362.825,551.608 362.826,551.401 362.812,551.181C362.804,551.052 362.694,550.954 362.565,550.963Z" style="fill:rgb(199,139,109);fill-rule:nonzero;"/>
                                <path d="M361.958,552.781C361.792,552.973 361.574,553.113 361.294,553.212C361.173,553.254 361.109,553.386 361.152,553.508C361.181,553.599 361.262,553.656 361.351,553.663C361.383,553.667 361.416,553.662 361.449,553.652C361.804,553.528 362.093,553.339 362.31,553.089C362.395,552.991 362.385,552.844 362.287,552.76C362.19,552.674 362.043,552.684 361.958,552.781Z" style="fill:rgb(199,139,109);fill-rule:nonzero;"/>
                                <path d="M353.492,544.96C353.183,544.944 352.871,544.935 352.559,544.934C352.431,544.931 352.326,545.035 352.324,545.163C352.324,545.285 352.417,545.388 352.536,545.398C352.542,545.398 352.55,545.399 352.556,545.399C352.861,545.4 353.168,545.411 353.468,545.425C353.598,545.431 353.706,545.332 353.713,545.203C353.719,545.075 353.618,544.964 353.492,544.96Z" style="fill:rgb(199,139,109);fill-rule:nonzero;"/>
                                <path d="M354.969,552.86C354.656,552.851 354.342,552.849 354.038,552.853C353.909,552.854 353.806,552.96 353.809,553.089C353.81,553.21 353.903,553.31 354.02,553.318C354.029,553.319 354.037,553.319 354.043,553.319C354.342,553.315 354.649,553.318 354.956,553.327C355.085,553.331 355.192,553.228 355.196,553.1C355.199,552.972 355.095,552.861 354.969,552.86Z" style="fill:rgb(199,139,109);fill-rule:nonzero;"/>
                                <path d="M351.628,544.943C351.32,544.952 351.007,544.968 350.698,544.988C350.57,544.999 350.473,545.109 350.481,545.238C350.489,545.353 350.58,545.443 350.694,545.453C350.706,545.455 350.717,545.455 350.73,545.453C351.032,545.433 351.339,545.418 351.642,545.408C351.77,545.405 351.872,545.298 351.869,545.169C351.865,545.039 351.758,544.938 351.628,544.943Z" style="fill:rgb(199,139,109);fill-rule:nonzero;"/>
                                <path d="M353.106,552.887C352.797,552.905 352.485,552.929 352.176,552.959C352.049,552.974 351.954,553.088 351.968,553.215C351.98,553.329 352.07,553.414 352.179,553.424L352.224,553.424C352.524,553.393 352.831,553.37 353.132,553.353C353.26,553.345 353.359,553.235 353.352,553.107C353.346,552.977 353.238,552.88 353.106,552.887Z" style="fill:rgb(199,139,109);fill-rule:nonzero;"/>
                                <path d="M356.826,552.979C356.506,552.95 356.198,552.923 355.898,552.905C355.77,552.897 355.659,552.995 355.65,553.123C355.642,553.249 355.736,553.358 355.862,553.371L355.868,553.371C356.162,553.39 356.468,553.414 356.779,553.444L356.782,553.444C356.909,553.455 357.022,553.363 357.035,553.235C357.046,553.106 356.952,552.993 356.826,552.979Z" style="fill:rgb(199,139,109);fill-rule:nonzero;"/>
                                <path d="M355.349,545.139C355.046,545.095 354.735,545.057 354.422,545.028L354.421,545.028C354.293,545.017 354.179,545.11 354.168,545.239C354.155,545.367 354.249,545.479 354.377,545.493C354.684,545.522 354.987,545.559 355.282,545.6C355.286,545.601 355.291,545.601 355.295,545.601C355.416,545.612 355.528,545.527 355.546,545.403C355.564,545.275 355.476,545.156 355.349,545.139Z" style="fill:rgb(199,139,109);fill-rule:nonzero;"/>
                                <path d="M357.182,545.511C356.891,545.433 356.583,545.361 356.271,545.298C356.144,545.273 356.022,545.355 355.996,545.481C355.972,545.606 356.053,545.73 356.18,545.756C356.483,545.816 356.781,545.884 357.064,545.962C357.077,545.965 357.089,545.966 357.103,545.97C357.213,545.98 357.32,545.907 357.349,545.796C357.381,545.672 357.308,545.545 357.182,545.511Z" style="fill:rgb(199,139,109);fill-rule:nonzero;"/>
                            </g>
                            <path d="M367.14,557.079C364.747,554.198 345.378,553.5 337.29,561.289C340.466,563.741 340.561,566.278 345.037,564.971C348.607,563.927 352.131,562.732 355.845,562.59C362.621,562.333 368.945,563.182 372.005,566.028C374.744,566.846 372.882,564.478 372.205,563.566C370.354,561.067 368.894,559.19 367.14,557.079Z" style="fill:rgb(89,54,42);fill-rule:nonzero;"/>
                            <path d="M366.881,557.159C364.539,554.342 345.902,553.043 337.994,560.656C341.961,563.716 341.478,564.673 347.096,563.031C353.282,561.22 366.615,559.959 371.631,564.621C373.421,566.037 373.203,565.039 371.832,563.498C369.81,561.229 368.595,559.221 366.881,557.159Z" style="fill:rgb(168,107,77);fill-rule:nonzero;"/>
                            <path d="M335.944,560.118C334.742,561.015 333.601,561.351 332.748,560.977C331.895,560.606 332.129,561.277 332.078,561.864C332.025,562.451 332.979,563.008 335.255,562.029C337.529,561.05 339.582,558.574 339.582,558.574C339.14,557.569 339.025,556.87 339.025,556.87C339.025,556.87 337.147,559.221 335.944,560.118Z" style="fill:rgb(142,82,59);fill-rule:nonzero;"/>
                            <path d="M352.819,561.638C348.03,562.216 344.945,563.875 342.678,563.452C340.842,563.111 338.695,561.21 338.695,561.21C338.695,561.21 340.163,563.784 342.616,564.149C345.072,564.515 346.344,563.048 352.931,562.027C359.519,561.006 365.034,561.833 365.034,561.833C365.034,561.833 359.505,560.83 352.819,561.638Z" style="fill:rgb(214,159,133);fill-rule:nonzero;"/>
                            <path d="M348.012,561.238C343.63,562.18 342.029,562.296 339.797,560.334C339.797,560.334 340.881,562.635 342.853,562.713C345.602,562.821 347.818,561.281 355.806,560.604C355.806,560.604 352.395,560.297 348.012,561.238Z" style="fill:rgb(122,71,51);fill-rule:nonzero;"/>
                            <path d="M361.097,560.506C361.097,560.506 367.817,560.96 370.717,562.996L370.154,562.188C370.154,562.188 365.667,560.198 361.097,560.506Z" style="fill:rgb(122,71,51);fill-rule:nonzero;"/>
                        </g>
                    </g>
                </g>
            </g>
        </g>
    </g>
</svg>
